# xmcd
#
# Track frame offsets:
#	150
#	11622
#	24622
#	36192
#	47805
#	58647
#	69387
#	83112
#	93375
#	105675
#	117575
#	130980
#	143492
#	159885
#
# Disc length: 2282 seconds
# Revision: 3
# Processed by: cddbd v1.5.2PL0 Copyright (c) Steve Scherf et al.
# Submitted via: dBpowerAMP V12.0
#
DISCID=b508e80e
DTITLE=Irma Thomas - Something Good (The Muscle Shoals Sessions)
DYEAR=1967
DGENRE=Soul
TTITLE0=Cheater Man (Alternate Mix)
TTITLE1=A Woman Will do Wrong
TTITLE2=Good to me
TTITLE3=We Got Something Good
TTITLE4=Let's do it Over
TTITLE5=I Gave You Everything
TTITLE6=I've Been Loving You Too Long
TTITLE7=Security
TTITLE8=Somewhere Crying
TTITLE9=Don't Make me Stop Now
TTITLE10=Good Things Don't Come Easy
TTITLE11=Here I Am, Take me
TTITLE12=Yours Until Tomorrow
TTITLE13=We Got Something Good (Alternate Mix)
EXTD=
EXTT0=
EXTT1=
EXTT2=
EXTT3=
EXTT4=
EXTT5=
EXTT6=
EXTT7=
EXTT8=
EXTT9=
EXTT10=
EXTT11=
EXTT12=
EXTT13=
PLAYORDER=
